<svg width="23" height="24" viewBox="0 0 23 24" fill="none" xmlns="http://www.w3.org/2000/svg">
<g clip-path="url(#clip0_207_1659)">
<path d="M23 18.2201C23 18.8979 22.7308 19.5479 22.2515 20.0272C21.7722 20.5064 21.1222 20.7757 20.4444 20.7757H2.55556C1.87778 20.7757 1.22776 20.5064 0.748505 20.0272C0.269245 19.5479 0 18.8979 0 18.2201V6.72011C0 6.04233 0.269245 5.39232 0.748505 4.91306C1.22776 4.4338 1.87778 4.16455 2.55556 4.16455H20.4444C21.1222 4.16455 21.7722 4.4338 22.2515 4.91306C22.7308 5.39232 23 6.04233 23 6.72011V18.2201Z" fill="#009B3A"/>
<path d="M20.9096 12.4701L11.5 19.5771L2.09045 12.4701L11.5 5.36243L20.9096 12.4701Z" fill="#FEDF01"/>
<path d="M11.4847 16.5474C13.7634 16.5474 15.6107 14.7002 15.6107 12.4215C15.6107 10.1428 13.7634 8.29553 11.4847 8.29553C9.20601 8.29553 7.35876 10.1428 7.35876 12.4215C7.35876 14.7002 9.20601 16.5474 11.4847 16.5474Z" fill="#002776"/>
<path d="M7.84364 10.4813C7.62935 10.8851 7.48423 11.322 7.41431 11.7737C9.96667 11.5885 13.4307 12.9819 14.9174 14.7094C15.1743 14.3235 15.3646 13.8917 15.4816 13.4291C13.6467 11.6351 10.4235 10.471 7.84364 10.4813Z" fill="#CBE9D4"/>
<path d="M7.66663 12.6189H8.30551V13.2578H7.66663V12.6189ZM8.30551 13.8967H8.9444V14.5356H8.30551V13.8967Z" fill="#88C9F9"/>
<path d="M9.58337 12.619H10.2223V13.2579H9.58337V12.619ZM10.8612 13.2579H11.5V13.8967H10.8612V13.2579ZM13.4167 14.5356H14.0556V15.1745H13.4167V14.5356ZM11.5 15.1745H12.1389V15.8134H11.5V15.1745ZM13.4167 11.3412H14.0556V11.9801H13.4167V11.3412Z" fill="#55ACEE"/>
<path d="M12.1389 13.8967H12.7778V14.5356H12.1389V13.8967Z" fill="#3B88C3"/>
</g>
<defs>
<clipPath id="clip0_207_1659">
<rect width="23" height="23" fill="white" transform="translate(0 0.970093)"/>
</clipPath>
</defs>
</svg>
