<svg width="212" height="20" viewBox="0 0 212 20" fill="none" xmlns="http://www.w3.org/2000/svg">
<path d="M69.144 5.824V14.976H71.416V16H65.704V14.976H67.976V5.824H65.704V4.8H71.416V5.824H69.144ZM76.077 16.08C75.3197 16.08 74.733 15.8667 74.317 15.44C73.9117 15.0133 73.709 14.4213 73.709 13.664V4.128H74.845V13.568C74.845 14.0693 74.9623 14.4533 75.197 14.72C75.4317 14.976 75.7837 15.104 76.253 15.104C76.5517 15.104 76.8077 15.056 77.021 14.96L77.101 15.904C76.7703 16.0213 76.429 16.08 76.077 16.08ZM86.1703 4.128V16H85.0823V14.336C84.7409 14.9013 84.2876 15.3333 83.7223 15.632C83.1676 15.9307 82.5383 16.08 81.8343 16.08C81.0449 16.08 80.3303 15.8987 79.6903 15.536C79.0503 15.1733 78.5489 14.6667 78.1863 14.016C77.8236 13.3653 77.6423 12.624 77.6423 11.792C77.6423 10.96 77.8236 10.2187 78.1863 9.568C78.5489 8.91733 79.0503 8.416 79.6903 8.064C80.3303 7.70133 81.0449 7.52 81.8343 7.52C82.5169 7.52 83.1303 7.664 83.6743 7.952C84.2289 8.22933 84.6823 8.64 85.0343 9.184V4.128H86.1703ZM81.9303 15.072C82.5169 15.072 83.0449 14.9387 83.5143 14.672C83.9943 14.3947 84.3676 14.0053 84.6343 13.504C84.9116 13.0027 85.0503 12.432 85.0503 11.792C85.0503 11.152 84.9116 10.5813 84.6343 10.08C84.3676 9.57867 83.9943 9.19467 83.5143 8.928C83.0449 8.65067 82.5169 8.512 81.9303 8.512C81.3329 8.512 80.7943 8.65067 80.3143 8.928C79.8449 9.19467 79.4716 9.57867 79.1943 10.08C78.9276 10.5813 78.7943 11.152 78.7943 11.792C78.7943 12.432 78.9276 13.0027 79.1943 13.504C79.4716 14.0053 79.8449 14.3947 80.3143 14.672C80.7943 14.9387 81.3329 15.072 81.9303 15.072ZM97.014 7.584V16H95.926V14.336C95.5847 14.9013 95.1313 15.3333 94.566 15.632C94.0113 15.9307 93.382 16.08 92.678 16.08C91.8887 16.08 91.174 15.8987 90.534 15.536C89.894 15.1733 89.3927 14.6667 89.03 14.016C88.6673 13.3653 88.486 12.624 88.486 11.792C88.486 10.96 88.6673 10.2187 89.03 9.568C89.3927 8.91733 89.894 8.416 90.534 8.064C91.174 7.70133 91.8887 7.52 92.678 7.52C93.3607 7.52 93.974 7.664 94.518 7.952C95.0727 8.22933 95.526 8.64 95.878 9.184V7.584H97.014ZM92.774 15.072C93.3607 15.072 93.8887 14.9387 94.358 14.672C94.838 14.3947 95.2113 14.0053 95.478 13.504C95.7553 13.0027 95.894 12.432 95.894 11.792C95.894 11.152 95.7553 10.5813 95.478 10.08C95.2113 9.57867 94.838 9.19467 94.358 8.928C93.8887 8.65067 93.3607 8.512 92.774 8.512C92.1767 8.512 91.638 8.65067 91.158 8.928C90.6887 9.19467 90.3153 9.57867 90.038 10.08C89.7713 10.5813 89.638 11.152 89.638 11.792C89.638 12.432 89.7713 13.0027 90.038 13.504C90.3153 14.0053 90.6887 14.3947 91.158 14.672C91.638 14.9387 92.1767 15.072 92.774 15.072ZM104.605 16V4.8H105.581L113.309 14.528H112.797V4.8H113.965V16H112.989L105.277 6.272H105.789V16H104.605ZM120.949 16.08C120.074 16.08 119.306 15.8987 118.645 15.536C117.984 15.1627 117.466 14.656 117.093 14.016C116.72 13.3653 116.533 12.624 116.533 11.792C116.533 10.96 116.709 10.224 117.061 9.584C117.424 8.944 117.914 8.44267 118.533 8.08C119.162 7.70667 119.866 7.52 120.645 7.52C121.434 7.52 122.133 7.70133 122.741 8.064C123.36 8.416 123.845 8.91733 124.197 9.568C124.549 10.208 124.725 10.9493 124.725 11.792C124.725 11.8453 124.72 11.904 124.709 11.968C124.709 12.0213 124.709 12.08 124.709 12.144H117.397V11.296H124.101L123.653 11.632C123.653 11.024 123.52 10.4853 123.253 10.016C122.997 9.536 122.645 9.16267 122.197 8.896C121.749 8.62933 121.232 8.496 120.645 8.496C120.069 8.496 119.552 8.62933 119.093 8.896C118.634 9.16267 118.277 9.536 118.021 10.016C117.765 10.496 117.637 11.0453 117.637 11.664V11.84C117.637 12.48 117.776 13.0453 118.053 13.536C118.341 14.016 118.736 14.3947 119.237 14.672C119.749 14.9387 120.33 15.072 120.981 15.072C121.493 15.072 121.968 14.9813 122.405 14.8C122.853 14.6187 123.237 14.3413 123.557 13.968L124.197 14.704C123.824 15.152 123.354 15.4933 122.789 15.728C122.234 15.9627 121.621 16.08 120.949 16.08ZM129.693 16.08C128.904 16.08 128.296 15.8667 127.869 15.44C127.442 15.0133 127.229 14.4107 127.229 13.632V5.744H128.365V13.568C128.365 14.0587 128.488 14.4373 128.733 14.704C128.989 14.9707 129.352 15.104 129.821 15.104C130.322 15.104 130.738 14.96 131.069 14.672L131.469 15.488C131.245 15.6907 130.973 15.84 130.653 15.936C130.344 16.032 130.024 16.08 129.693 16.08ZM125.725 8.544V7.6H130.925V8.544H125.725ZM138.801 16V14.144L138.753 13.84V10.736C138.753 10.0213 138.55 9.472 138.145 9.088C137.75 8.704 137.158 8.512 136.369 8.512C135.825 8.512 135.308 8.60267 134.817 8.784C134.326 8.96533 133.91 9.20533 133.569 9.504L133.057 8.656C133.484 8.29333 133.996 8.016 134.593 7.824C135.19 7.62133 135.82 7.52 136.481 7.52C137.569 7.52 138.406 7.792 138.993 8.336C139.59 8.86933 139.889 9.68533 139.889 10.784V16H138.801ZM135.905 16.08C135.276 16.08 134.726 15.9787 134.257 15.776C133.798 15.5627 133.446 15.2747 133.201 14.912C132.956 14.5387 132.833 14.112 132.833 13.632C132.833 13.1947 132.934 12.8 133.137 12.448C133.35 12.0853 133.692 11.7973 134.161 11.584C134.641 11.36 135.281 11.248 136.081 11.248H138.977V12.096H136.113C135.302 12.096 134.737 12.24 134.417 12.528C134.108 12.816 133.953 13.1733 133.953 13.6C133.953 14.08 134.14 14.464 134.513 14.752C134.886 15.04 135.409 15.184 136.081 15.184C136.721 15.184 137.27 15.04 137.729 14.752C138.198 14.4533 138.54 14.0267 138.753 13.472L139.009 14.256C138.796 14.8107 138.422 15.2533 137.889 15.584C137.366 15.9147 136.705 16.08 135.905 16.08Z" fill="black"/>
<path d="M18.8475 15V5.2H23.2995C24.3635 5.2 25.3015 5.40533 26.1135 5.816C26.9255 6.21733 27.5602 6.782 28.0175 7.51C28.4749 8.238 28.7035 9.10133 28.7035 10.1C28.7035 11.0893 28.4749 11.9527 28.0175 12.69C27.5602 13.418 26.9255 13.9873 26.1135 14.398C25.3015 14.7993 24.3635 15 23.2995 15H18.8475ZM21.1155 13.138H23.1875C23.8409 13.138 24.4055 13.0167 24.8815 12.774C25.3669 12.522 25.7402 12.1673 26.0015 11.71C26.2722 11.2527 26.4075 10.716 26.4075 10.1C26.4075 9.47467 26.2722 8.938 26.0015 8.49C25.7402 8.03267 25.3669 7.68267 24.8815 7.44C24.4055 7.188 23.8409 7.062 23.1875 7.062H21.1155V13.138ZM33.998 15.112C33.1393 15.112 32.3833 14.944 31.73 14.608C31.086 14.272 30.5866 13.8147 30.232 13.236C29.8773 12.648 29.7 11.9807 29.7 11.234C29.7 10.478 29.8726 9.81067 30.218 9.232C30.5726 8.644 31.0533 8.18667 31.66 7.86C32.2666 7.524 32.9526 7.356 33.718 7.356C34.4553 7.356 35.118 7.51467 35.706 7.832C36.3033 8.14 36.7746 8.588 37.12 9.176C37.4653 9.75467 37.638 10.45 37.638 11.262C37.638 11.346 37.6333 11.444 37.624 11.556C37.6146 11.6587 37.6053 11.7567 37.596 11.85H31.478V10.576H36.448L35.608 10.954C35.608 10.562 35.5286 10.2213 35.37 9.932C35.2113 9.64267 34.992 9.41867 34.712 9.26C34.432 9.092 34.1053 9.008 33.732 9.008C33.3586 9.008 33.0273 9.092 32.738 9.26C32.458 9.41867 32.2386 9.64733 32.08 9.946C31.9213 10.2353 31.842 10.5807 31.842 10.982V11.318C31.842 11.7287 31.9306 12.0927 32.108 12.41C32.2946 12.718 32.5513 12.956 32.878 13.124C33.214 13.2827 33.606 13.362 34.054 13.362C34.4553 13.362 34.8053 13.3013 35.104 13.18C35.412 13.0587 35.692 12.8767 35.944 12.634L37.106 13.894C36.7606 14.286 36.3266 14.5893 35.804 14.804C35.2813 15.0093 34.6793 15.112 33.998 15.112ZM40.9993 15L37.8353 7.468H40.0893L42.7213 13.95H41.6013L44.3313 7.468H46.4313L43.2533 15H40.9993Z" fill="black"/>
<path d="M14 6.4053L7.75 9.91856L14 13.4318L12.75 14.8371L4 9.91856L12.75 5L14 6.4053Z" fill="#333333"/>
<path d="M50 14.1281L56.1462 10.6148L50 7.10159L51.2292 5.69629L59.8339 10.6148L51.2292 15.5334L50 14.1281Z" fill="#333333"/>
<path d="M159 17.4L163.62 4.212H165.566L160.946 17.4H159ZM170.071 16V6.2H174.523C175.587 6.2 176.525 6.40533 177.337 6.816C178.149 7.21733 178.784 7.782 179.241 8.51C179.699 9.238 179.927 10.1013 179.927 11.1C179.927 12.0893 179.699 12.9527 179.241 13.69C178.784 14.418 178.149 14.9873 177.337 15.398C176.525 15.7993 175.587 16 174.523 16H170.071ZM172.339 14.138H174.411C175.065 14.138 175.629 14.0167 176.105 13.774C176.591 13.522 176.964 13.1673 177.225 12.71C177.496 12.2527 177.631 11.716 177.631 11.1C177.631 10.4747 177.496 9.938 177.225 9.49C176.964 9.03267 176.591 8.68267 176.105 8.44C175.629 8.188 175.065 8.062 174.411 8.062H172.339V14.138ZM185.222 16.112C184.363 16.112 183.607 15.944 182.954 15.608C182.31 15.272 181.81 14.8147 181.456 14.236C181.101 13.648 180.924 12.9807 180.924 12.234C180.924 11.478 181.096 10.8107 181.442 10.232C181.796 9.644 182.277 9.18667 182.884 8.86C183.49 8.524 184.176 8.356 184.942 8.356C185.679 8.356 186.342 8.51467 186.93 8.832C187.527 9.14 187.998 9.588 188.344 10.176C188.689 10.7547 188.862 11.45 188.862 12.262C188.862 12.346 188.857 12.444 188.848 12.556C188.838 12.6587 188.829 12.7567 188.82 12.85H182.702V11.576H187.672L186.832 11.954C186.832 11.562 186.752 11.2213 186.594 10.932C186.435 10.6427 186.216 10.4187 185.936 10.26C185.656 10.092 185.329 10.008 184.956 10.008C184.582 10.008 184.251 10.092 183.962 10.26C183.682 10.4187 183.462 10.6473 183.304 10.946C183.145 11.2353 183.066 11.5807 183.066 11.982V12.318C183.066 12.7287 183.154 13.0927 183.332 13.41C183.518 13.718 183.775 13.956 184.102 14.124C184.438 14.2827 184.83 14.362 185.278 14.362C185.679 14.362 186.029 14.3013 186.328 14.18C186.636 14.0587 186.916 13.8767 187.168 13.634L188.33 14.894C187.984 15.286 187.55 15.5893 187.028 15.804C186.505 16.0093 185.903 16.112 185.222 16.112ZM192.223 16L189.059 8.468H191.313L193.945 14.95H192.825L195.555 8.468H197.655L194.477 16H192.223Z" fill="black"/>
<path d="M156 7.4053L149.75 10.9186L156 14.4318L154.75 15.8371L146 10.9186L154.75 6L156 7.4053Z" fill="#333333"/>
<path d="M201 15.1281L207.146 11.6148L201 8.10159L202.229 6.69629L210.834 11.6148L202.229 16.5334L201 15.1281Z" fill="#333333"/>
</svg>
