<svg width="246" height="20" viewBox="0 0 246 20" fill="none" xmlns="http://www.w3.org/2000/svg">
<path d="M78.382 6.362V15.038H80.704V17H73.738V15.038H76.06V6.362H73.738V4.4H80.704V6.362H78.382ZM86.0815 17.126C85.0855 17.126 84.3055 16.856 83.7415 16.316C83.1895 15.764 82.9135 14.99 82.9135 13.994V3.644H85.1635V13.832C85.1635 14.792 85.6135 15.272 86.5135 15.272C86.8135 15.272 87.0835 15.212 87.3235 15.092L87.4315 16.892C87.0115 17.048 86.5615 17.126 86.0815 17.126ZM98.1986 3.644V17H96.0386V15.758C95.6666 16.214 95.2046 16.556 94.6526 16.784C94.1126 17.012 93.5126 17.126 92.8526 17.126C91.9286 17.126 91.0946 16.922 90.3506 16.514C89.6186 16.106 89.0426 15.53 88.6226 14.786C88.2026 14.03 87.9926 13.166 87.9926 12.194C87.9926 11.222 88.2026 10.364 88.6226 9.62C89.0426 8.876 89.6186 8.3 90.3506 7.892C91.0946 7.484 91.9286 7.28 92.8526 7.28C93.4886 7.28 94.0706 7.388 94.5986 7.604C95.1266 7.82 95.5766 8.144 95.9486 8.576V3.644H98.1986ZM93.1226 15.2C93.6626 15.2 94.1486 15.08 94.5806 14.84C95.0126 14.588 95.3546 14.234 95.6066 13.778C95.8586 13.322 95.9846 12.794 95.9846 12.194C95.9846 11.594 95.8586 11.066 95.6066 10.61C95.3546 10.154 95.0126 9.806 94.5806 9.566C94.1486 9.314 93.6626 9.188 93.1226 9.188C92.5826 9.188 92.0966 9.314 91.6646 9.566C91.2326 9.806 90.8906 10.154 90.6386 10.61C90.3866 11.066 90.2606 11.594 90.2606 12.194C90.2606 12.794 90.3866 13.322 90.6386 13.778C90.8906 14.234 91.2326 14.588 91.6646 14.84C92.0966 15.08 92.5826 15.2 93.1226 15.2ZM110.538 7.388V17H108.396V15.758C108.024 16.214 107.562 16.556 107.01 16.784C106.47 17.012 105.87 17.126 105.21 17.126C104.274 17.126 103.434 16.922 102.69 16.514C101.958 16.106 101.382 15.53 100.962 14.786C100.554 14.042 100.35 13.178 100.35 12.194C100.35 11.21 100.554 10.352 100.962 9.62C101.382 8.876 101.958 8.3 102.69 7.892C103.434 7.484 104.274 7.28 105.21 7.28C105.834 7.28 106.404 7.388 106.92 7.604C107.448 7.82 107.904 8.138 108.288 8.558V7.388H110.538ZM105.462 15.2C106.29 15.2 106.974 14.924 107.514 14.372C108.054 13.82 108.324 13.094 108.324 12.194C108.324 11.294 108.054 10.568 107.514 10.016C106.974 9.464 106.29 9.188 105.462 9.188C104.634 9.188 103.95 9.464 103.41 10.016C102.882 10.568 102.618 11.294 102.618 12.194C102.618 13.094 102.882 13.82 103.41 14.372C103.95 14.924 104.634 15.2 105.462 15.2ZM118.409 17V4.4H120.335L128.237 14.102H127.283V4.4H129.605V17H127.679L119.777 7.298H120.731V17H118.409ZM137.283 17.126C136.215 17.126 135.279 16.916 134.475 16.496C133.683 16.064 133.065 15.476 132.621 14.732C132.189 13.988 131.973 13.142 131.973 12.194C131.973 11.234 132.183 10.388 132.603 9.656C133.035 8.912 133.623 8.33 134.367 7.91C135.123 7.49 135.981 7.28 136.941 7.28C137.877 7.28 138.711 7.484 139.443 7.892C140.175 8.3 140.751 8.876 141.171 9.62C141.591 10.364 141.801 11.24 141.801 12.248C141.801 12.344 141.795 12.452 141.783 12.572C141.783 12.692 141.777 12.806 141.765 12.914H133.755V11.42H140.577L139.695 11.888C139.707 11.336 139.593 10.85 139.353 10.43C139.113 10.01 138.783 9.68 138.363 9.44C137.955 9.2 137.481 9.08 136.941 9.08C136.389 9.08 135.903 9.2 135.483 9.44C135.075 9.68 134.751 10.016 134.511 10.448C134.283 10.868 134.169 11.366 134.169 11.942V12.302C134.169 12.878 134.301 13.388 134.565 13.832C134.829 14.276 135.201 14.618 135.681 14.858C136.161 15.098 136.713 15.218 137.337 15.218C137.877 15.218 138.363 15.134 138.795 14.966C139.227 14.798 139.611 14.534 139.947 14.174L141.153 15.56C140.721 16.064 140.175 16.454 139.515 16.73C138.867 16.994 138.123 17.126 137.283 17.126ZM147.58 17.126C146.524 17.126 145.708 16.856 145.132 16.316C144.556 15.764 144.268 14.954 144.268 13.886V5.264H146.518V13.832C146.518 14.288 146.632 14.642 146.86 14.894C147.1 15.146 147.43 15.272 147.85 15.272C148.354 15.272 148.774 15.14 149.11 14.876L149.74 16.478C149.476 16.694 149.152 16.856 148.768 16.964C148.384 17.072 147.988 17.126 147.58 17.126ZM142.684 9.26V7.46H149.092V9.26H142.684ZM160.987 7.388V17H158.845V15.758C158.473 16.214 158.011 16.556 157.459 16.784C156.919 17.012 156.319 17.126 155.659 17.126C154.723 17.126 153.883 16.922 153.139 16.514C152.407 16.106 151.831 15.53 151.411 14.786C151.003 14.042 150.799 13.178 150.799 12.194C150.799 11.21 151.003 10.352 151.411 9.62C151.831 8.876 152.407 8.3 153.139 7.892C153.883 7.484 154.723 7.28 155.659 7.28C156.283 7.28 156.853 7.388 157.369 7.604C157.897 7.82 158.353 8.138 158.737 8.558V7.388H160.987ZM155.911 15.2C156.739 15.2 157.423 14.924 157.963 14.372C158.503 13.82 158.773 13.094 158.773 12.194C158.773 11.294 158.503 10.568 157.963 10.016C157.423 9.464 156.739 9.188 155.911 9.188C155.083 9.188 154.399 9.464 153.859 10.016C153.331 10.568 153.067 11.294 153.067 12.194C153.067 13.094 153.331 13.82 153.859 14.372C154.399 14.924 155.083 15.2 155.911 15.2Z" fill="#DFE2E5"/>
<path d="M19.4243 17V5.8H24.5123C25.7283 5.8 26.8003 6.03467 27.7283 6.504C28.6563 6.96267 29.3816 7.608 29.9043 8.44C30.4269 9.272 30.6883 10.2587 30.6883 11.4C30.6883 12.5307 30.4269 13.5173 29.9043 14.36C29.3816 15.192 28.6563 15.8427 27.7283 16.312C26.8003 16.7707 25.7283 17 24.5123 17H19.4243ZM22.0163 14.872H24.3843C25.1309 14.872 25.7763 14.7333 26.3203 14.456C26.8749 14.168 27.3016 13.7627 27.6003 13.24C27.9096 12.7173 28.0643 12.104 28.0643 11.4C28.0643 10.6853 27.9096 10.072 27.6003 9.56C27.3016 9.03733 26.8749 8.63733 26.3203 8.36C25.7763 8.072 25.1309 7.928 24.3843 7.928H22.0163V14.872ZM36.739 17.128C35.7577 17.128 34.8937 16.936 34.147 16.552C33.411 16.168 32.8403 15.6453 32.435 14.984C32.0297 14.312 31.827 13.5493 31.827 12.696C31.827 11.832 32.0243 11.0693 32.419 10.408C32.8243 9.736 33.3737 9.21333 34.067 8.84C34.7603 8.456 35.5443 8.264 36.419 8.264C37.2617 8.264 38.019 8.44533 38.691 8.808C39.3737 9.16 39.9123 9.672 40.307 10.344C40.7017 11.0053 40.899 11.8 40.899 12.728C40.899 12.824 40.8937 12.936 40.883 13.064C40.8723 13.1813 40.8617 13.2933 40.851 13.4H33.859V11.944H39.539L38.579 12.376C38.579 11.928 38.4883 11.5387 38.307 11.208C38.1257 10.8773 37.875 10.6213 37.555 10.44C37.235 10.248 36.8617 10.152 36.435 10.152C36.0083 10.152 35.6297 10.248 35.299 10.44C34.979 10.6213 34.7283 10.8827 34.547 11.224C34.3657 11.5547 34.275 11.9493 34.275 12.408V12.792C34.275 13.2613 34.3763 13.6773 34.579 14.04C34.7923 14.392 35.0857 14.664 35.459 14.856C35.843 15.0373 36.291 15.128 36.803 15.128C37.2617 15.128 37.6617 15.0587 38.003 14.92C38.355 14.7813 38.675 14.5733 38.963 14.296L40.291 15.736C39.8963 16.184 39.4003 16.5307 38.803 16.776C38.2057 17.0107 37.5177 17.128 36.739 17.128ZM44.7405 17L41.1245 8.392H43.7005L46.7085 15.8H45.4285L48.5485 8.392H50.9485L47.3165 17H44.7405Z" fill="#DFE2E5"/>
<path d="M55.4143 16.1251L61.9199 12.1035L55.4672 7.99882L56.7736 6.38188L65.8074 12.1285L56.6995 17.7587L55.4143 16.1251Z" fill="#DFE2E5"/>
<path d="M14.5136 7.78179L8.03432 11.845L14.5136 15.9082L13.2178 17.5335L4.14673 11.845L13.2178 6.15649L14.5136 7.78179Z" fill="#DFE2E5"/>
<path d="M183.67 17.6L188.95 2.528H191.174L185.894 17.6H183.67ZM196.323 16V4.8H201.411C202.627 4.8 203.699 5.03467 204.627 5.504C205.555 5.96267 206.281 6.608 206.803 7.44C207.326 8.272 207.587 9.25867 207.587 10.4C207.587 11.5307 207.326 12.5173 206.803 13.36C206.281 14.192 205.555 14.8427 204.627 15.312C203.699 15.7707 202.627 16 201.411 16H196.323ZM198.915 13.872H201.283C202.03 13.872 202.675 13.7333 203.219 13.456C203.774 13.168 204.201 12.7627 204.499 12.24C204.809 11.7173 204.963 11.104 204.963 10.4C204.963 9.68533 204.809 9.072 204.499 8.56C204.201 8.03733 203.774 7.63733 203.219 7.36C202.675 7.072 202.03 6.928 201.283 6.928H198.915V13.872ZM213.638 16.128C212.657 16.128 211.793 15.936 211.046 15.552C210.31 15.168 209.739 14.6453 209.334 13.984C208.929 13.312 208.726 12.5493 208.726 11.696C208.726 10.832 208.923 10.0693 209.318 9.408C209.723 8.736 210.273 8.21333 210.966 7.84C211.659 7.456 212.443 7.264 213.318 7.264C214.161 7.264 214.918 7.44533 215.59 7.808C216.273 8.16 216.811 8.672 217.206 9.344C217.601 10.0053 217.798 10.8 217.798 11.728C217.798 11.824 217.793 11.936 217.782 12.064C217.771 12.1813 217.761 12.2933 217.75 12.4H210.758V10.944H216.438L215.478 11.376C215.478 10.928 215.387 10.5387 215.206 10.208C215.025 9.87733 214.774 9.62133 214.454 9.44C214.134 9.248 213.761 9.152 213.334 9.152C212.907 9.152 212.529 9.248 212.198 9.44C211.878 9.62133 211.627 9.88267 211.446 10.224C211.265 10.5547 211.174 10.9493 211.174 11.408V11.792C211.174 12.2613 211.275 12.6773 211.478 13.04C211.691 13.392 211.985 13.664 212.358 13.856C212.742 14.0373 213.19 14.128 213.702 14.128C214.161 14.128 214.561 14.0587 214.902 13.92C215.254 13.7813 215.574 13.5733 215.862 13.296L217.19 14.736C216.795 15.184 216.299 15.5307 215.702 15.776C215.105 16.0107 214.417 16.128 213.638 16.128ZM221.639 16L218.023 7.392H220.599L223.607 14.8H222.327L225.447 7.392H227.847L224.215 16H221.639Z" fill="#DFE2E5"/>
<path d="M231.412 15.1251L237.919 11.1035L231.465 6.99882L232.772 5.38188L241.807 11.1285L232.698 16.7587L231.412 15.1251Z" fill="#DFE2E5"/>
<path d="M182.516 6.78179L176.035 10.845L182.516 14.9082L181.22 16.5335L172.147 10.845L181.22 5.15649L182.516 6.78179Z" fill="#DFE2E5"/>
</svg>
