<svg width="505" height="309" viewBox="0 0 505 309" fill="none" xmlns="http://www.w3.org/2000/svg">
<path d="M112.315 272.471C98.0833 272.471 86.5463 254.648 86.5463 232.662C86.5463 210.677 98.0833 192.854 112.315 192.854C126.547 192.854 138.084 210.677 138.084 232.662C138.084 254.648 126.547 272.471 112.315 272.471Z" fill="#8E9297"/>
<path d="M114.694 297.822C104.374 250.94 114.591 204.227 114.695 203.761L116.703 204.018C116.599 204.482 106.441 250.95 116.703 297.569L114.694 297.822Z" fill="#464648"/>
<path d="M135.002 224.102L135.962 225.462L112.66 234.898L111.7 233.539L135.002 224.102Z" fill="#464648"/>
<path d="M88.0676 228.829L111.367 238.271L110.406 239.631L87.1066 230.189L88.0676 228.829Z" fill="#464648"/>
<path d="M50.4004 247.52C22.565 247.52 -2.28882e-05 212.661 -2.28882e-05 169.659C-2.28882e-05 126.658 22.565 91.7986 50.4004 91.7986C78.2359 91.7986 100.801 126.658 100.801 169.659C100.801 212.661 78.2359 247.52 50.4004 247.52Z" fill="#F1F1F1"/>
<path d="M56.0144 296.984C35.8553 205.408 55.8111 114.166 56.0149 113.255L58.0224 113.513C57.8191 114.421 37.9221 205.418 58.0229 296.731L56.0144 296.984Z" fill="#464648"/>
<path d="M95.2331 153.567L96.1936 154.926L50.6168 173.384L49.6563 172.024L95.2331 153.567Z" fill="#464648"/>
<path d="M2.51674 162.813L48.0868 181.279L47.1258 182.639L1.55573 164.172L2.51674 162.813Z" fill="#464648"/>
<path d="M20.8302 298H504.57V297.122H0.221039L20.8302 298Z" fill="#3F3D56"/>
<path d="M162.77 229.343C124.679 229.343 93.8009 181.641 93.8009 122.797C93.8009 63.953 124.679 16.2506 162.77 16.2506C200.861 16.2506 231.739 63.953 231.739 122.797C231.739 181.641 200.861 229.343 162.77 229.343Z" fill="#F1F1F1"/>
<path d="M174.823 296.984C147.247 171.716 174.544 46.9054 174.823 45.6594L176.831 45.9169C176.552 47.1606 149.314 171.726 176.831 296.731L174.823 296.984Z" fill="#464648"/>
<path d="M227.297 101.025L228.257 102.385L165.889 127.642L164.929 126.283L227.297 101.025Z" fill="#464648"/>
<path d="M102.068 115.678L164.427 140.948L163.466 142.307L101.107 117.037L102.068 115.678Z" fill="#464648"/>
<path d="M258.464 192.609C258.464 192.609 264.157 201.604 262.124 204.04C260.09 206.475 277.378 206.536 277.378 206.536C277.378 206.536 274.781 193.451 275.546 190.44L258.464 192.609Z" fill="#EBC9C9"/>
<path d="M267.562 195.869C277.422 195.869 285.415 187.907 285.415 178.085C285.415 168.264 277.422 160.302 267.562 160.302C257.702 160.302 249.71 168.264 249.71 178.085C249.71 187.907 257.702 195.869 267.562 195.869Z" fill="#1B1B1D"/>
<path d="M309.552 274.478V285.021L320.135 282.825L319.253 275.357L309.552 274.478Z" fill="#EBC9C9"/>
<path d="M347.034 276.236L376.579 281.068L369.083 292.05C369.083 292.05 348.357 285.021 343.065 285.021C337.774 285.021 347.034 276.236 347.034 276.236Z" fill="#EBC9C9"/>
<path d="M280.006 255.15C280.006 255.15 302.055 229.673 309.11 230.99C316.166 232.308 319.253 240.215 319.253 240.215L323.222 279.311C323.222 279.311 309.11 280.628 309.11 279.311C309.11 277.993 306.465 249.879 306.465 249.879C306.465 249.879 285.739 295.564 274.714 265.254L280.006 255.15Z" fill="#D0CDE1"/>
<path d="M244.287 272.282C244.287 272.282 244.728 295.296 257.957 296.613C271.187 297.931 285.739 286.778 285.739 286.778L309.551 275.414C309.551 275.414 337.774 290.292 346.152 286.339C346.152 286.339 354.972 277.114 349.239 274.478C343.506 271.843 348.798 274.478 348.798 274.478L314.843 256.907C314.843 256.907 308.228 255.15 296.763 259.982C285.298 264.814 269.864 267.011 269.864 267.011L244.287 272.282Z" fill="#D0CDE1"/>
<path d="M266.336 197.166C273.642 197.166 279.565 191.266 279.565 183.988C279.565 176.71 273.642 170.81 266.336 170.81C259.03 170.81 253.107 176.71 253.107 183.988C253.107 191.266 259.03 197.166 266.336 197.166Z" fill="#EBC9C9"/>
<path d="M285.298 220.887L284.416 239.336C284.416 239.336 284.857 263.496 280.888 265.254C278.882 266.141 274.851 267.924 271.125 269.875C268.329 271.333 265.706 272.879 264.241 274.21C263.853 274.539 263.519 274.926 263.249 275.357C261.485 278.432 250.02 277.992 247.374 275.796C244.728 273.6 246.492 278.432 244.287 279.31C242.153 280.162 239.194 273.196 241.007 262.794C241.064 262.447 241.13 262.095 241.201 261.739C243.225 251.658 240.045 227.511 240.535 218.181C240.563 217.468 240.638 216.758 240.76 216.055C242.082 209.026 258.963 194.724 262.12 200.816C266.01 208.337 274.944 201.467 276.479 198.045C285.298 197.605 288.385 208.148 288.385 208.148L285.298 220.887Z" fill="#1B1B1D"/>
<path d="M321.017 281.068C321.017 281.068 313.961 283.703 311.756 283.264C309.551 282.825 307.347 284.582 307.347 287.217C307.347 289.853 304.701 296.003 308.67 296.442C312.638 296.882 328.954 296.003 332.482 297.321C332.482 297.321 348.357 297.76 347.034 291.171C345.711 284.582 339.097 285.021 339.097 285.021C339.097 285.021 321.017 284.143 321.017 281.068Z" fill="#1B1B1D"/>
<path d="M372.611 282.385C372.611 282.385 373.493 279.75 374.816 279.75C376.139 279.75 386.722 281.507 388.045 281.068C389.368 280.628 404.802 279.75 402.156 287.217C399.51 294.685 390.691 295.564 390.691 295.564C390.691 295.564 374.816 293.807 372.611 294.246C370.406 294.685 362.468 294.246 363.791 292.049C365.114 289.853 373.493 285.9 372.611 282.385Z" fill="#1B1B1D"/>
<path d="M332.47 219.29L334.89 229.231C334.917 229.341 334.913 229.457 334.878 229.566L323.903 263.728C323.86 263.864 323.771 263.98 323.652 264.058C323.533 264.136 323.39 264.171 323.249 264.157C323.107 264.143 322.974 264.081 322.872 263.982C322.771 263.882 322.706 263.75 322.69 263.609L321.172 250.301C321.162 250.213 321.171 250.123 321.199 250.039L331.272 219.243C331.314 219.115 331.397 219.004 331.508 218.926C331.62 218.849 331.753 218.81 331.889 218.815C332.024 218.821 332.154 218.87 332.259 218.955C332.364 219.041 332.439 219.158 332.47 219.29Z" fill="#3F3D56"/>
<path d="M331.581 220.129L333.814 228.658L324.135 259.809L321.901 250.167L331.581 220.129Z" fill="white"/>
<path d="M282.813 266.484C283.185 267.596 321.529 266.113 321.902 265.742C322.226 265.278 322.501 264.78 322.721 264.259C323.071 263.517 323.391 262.775 323.391 262.775L321.902 250.768L283.93 249.425C283.93 249.425 282.981 259.601 282.787 264.259C282.721 264.999 282.73 265.745 282.813 266.484Z" fill="#3F3D56"/>
<path opacity="0.1" d="M317.062 252.392L317.806 262.776H301.054V252.392H317.062Z" fill="#1B1B1D"/>
<path opacity="0.1" d="M295.47 255.73L295.57 255.71L295.098 260.179H285.791V255.73H295.47Z" fill="#1B1B1D"/>
<path opacity="0.1" d="M282.813 266.484C283.185 267.596 321.529 266.113 321.902 265.742C322.226 265.278 322.501 264.78 322.721 264.259H282.787C282.721 264.999 282.73 265.745 282.813 266.484Z" fill="#1B1B1D"/>
<path d="M270.52 163.6C273.268 163.6 275.495 161.382 275.495 158.644C275.495 155.907 273.268 153.688 270.52 153.688C267.772 153.688 265.545 155.907 265.545 158.644C265.545 161.382 267.772 163.6 270.52 163.6Z" fill="#1B1B1D"/>
<path d="M269.024 164.039C269.024 164.039 263.941 172.462 252.12 175.615C240.3 178.768 252.024 196.462 252.024 196.462C252.024 196.462 247.761 190.027 253.91 183.213C260.059 176.399 269.954 171.741 269.024 164.039Z" fill="#1B1B1D"/>
<path opacity="0.1" d="M271.125 269.875C270.036 271.926 268.757 274.057 268.541 274.918C268.395 275.502 266.781 275.164 264.241 274.211C259.148 272.291 250.32 267.894 242.082 263.497C241.703 263.296 241.342 263.061 241.006 262.794C241.064 262.447 241.13 262.095 241.2 261.74C243.224 251.658 240.045 227.511 240.535 218.181L244.287 216.934L251.784 223.962V253.833C251.784 253.833 271.187 264.375 272.51 265.254C273.184 265.702 272.254 267.744 271.125 269.875Z" fill="#1B1B1D"/>
<path d="M287.503 245.926L299.409 252.076C299.409 252.076 306.465 244.608 310.874 250.318C315.284 256.029 298.086 257.786 298.086 257.786C298.086 257.786 283.093 254.272 282.652 249.44C282.211 244.608 287.503 245.926 287.503 245.926Z" fill="#EBC9C9"/>
<path d="M267.659 262.179L274.714 263.936C274.714 263.936 282.652 254.272 291.03 257.786C299.409 261.3 280.447 268.329 280.447 268.329C280.447 268.329 270.305 273.6 266.336 269.207C262.367 264.815 267.659 262.179 267.659 262.179Z" fill="#EBC9C9"/>
<path d="M283.093 204.194C283.534 204.634 288.385 208.148 288.385 208.148C288.385 208.148 289.708 224.84 287.944 228.355C286.18 231.869 284.857 231.869 286.18 233.626C287.503 235.383 289.267 234.065 287.503 237.14C285.739 240.215 283.975 239.776 285.298 241.093C286.621 242.411 286.18 242.851 286.18 242.851L291.471 247.243C291.471 247.243 288.225 252.394 284.116 252.015C280.006 251.636 276.478 231.869 276.478 231.869L283.093 204.194Z" fill="#1B1B1D"/>
<path d="M244.287 214.737L240.318 216.055C240.318 216.055 229.735 254.711 242.082 261.3C254.43 267.889 268.1 274.478 268.541 272.721C268.982 270.964 273.832 263.936 272.51 263.057C271.187 262.179 251.784 251.636 251.784 251.636V221.765L244.287 214.737Z" fill="#1B1B1D"/>
<path opacity="0.1" d="M250.24 230.771L249.359 251.856L272.73 262.838L251.122 251.856L250.24 230.771Z" fill="#1B1B1D"/>
<path d="M414.254 197.711H413.942V187.709H414.254H414.754V187.209V183.394V182.894H414.254H413.919V172.987H414.254H414.754V172.487V167.28V166.78H414.254H413.968V161.514H414.254H414.754V161.014V149.976C414.754 149.976 414.754 149.976 414.754 149.976C414.754 147.556 415.783 145.227 417.627 143.505C419.472 141.781 421.981 140.807 424.604 140.807C424.604 140.807 424.604 140.807 424.604 140.807H486.605C489.228 140.807 491.738 141.781 493.583 143.505L493.924 143.139L493.583 143.505C495.428 145.227 496.457 147.556 496.458 149.976C496.458 149.976 496.458 149.976 496.458 149.977V175.925V176.425H496.958H497.429C497.484 176.425 497.529 176.446 497.558 176.473C497.586 176.498 497.595 176.526 497.595 176.547V194.338C497.595 194.359 497.586 194.387 497.558 194.412C497.529 194.439 497.484 194.46 497.429 194.46H496.958H496.458V194.96V287.655C496.458 290.076 495.428 292.406 493.584 294.129C491.738 295.853 489.228 296.827 486.605 296.827H424.604C423.306 296.827 422.021 296.588 420.823 296.124L420.643 296.59L420.823 296.124C419.625 295.661 418.539 294.982 417.626 294.128C416.713 293.275 415.99 292.264 415.498 291.153C415.006 290.043 414.754 288.855 414.754 287.655V198.211V197.711H414.254ZM413.968 161.422C413.968 161.422 413.968 161.422 413.968 161.423L413.968 161.422ZM413.919 182.935V182.934C413.919 182.934 413.919 182.935 413.919 182.935ZM413.968 166.874V166.874C413.968 166.874 413.968 166.874 413.968 166.874Z" fill="#1B1B1D" stroke="#222222"/>
<path d="M448.516 145.767H458.591C458.755 145.767 458.828 145.883 458.828 145.956V146.77C458.828 146.843 458.755 146.959 458.591 146.959H448.516C448.353 146.959 448.279 146.843 448.279 146.77V145.956C448.279 145.883 448.353 145.767 448.516 145.767Z" fill="#E6E8EC" stroke="#222222"/>
<path d="M463.235 146.362C463.235 146.741 462.896 147.105 462.405 147.105C461.914 147.105 461.575 146.741 461.575 146.362C461.575 145.984 461.914 145.62 462.405 145.62C462.896 145.62 463.235 145.984 463.235 146.362Z" fill="#E6E8EC" stroke="#222222"/>
<path d="M491.5 151.889V151.889V288.457C491.499 289.94 490.868 291.369 489.734 292.429C488.598 293.489 487.051 294.09 485.431 294.091H426.081H426.081C425.279 294.092 424.486 293.945 423.747 293.66C423.007 293.375 422.338 292.957 421.776 292.432C421.213 291.907 420.769 291.285 420.468 290.604C420.166 289.922 420.012 289.193 420.013 288.458V288.457V151.889V151.889C420.013 151.154 420.168 150.425 420.47 149.743C420.772 149.062 421.216 148.44 421.778 147.915C422.34 147.39 423.009 146.972 423.748 146.686C424.487 146.4 425.28 146.253 426.081 146.253H426.081H434.464V146.817C434.464 148.301 435.096 149.717 436.207 150.755C437.317 151.793 438.816 152.37 440.373 152.37H470.557C472.113 152.37 473.612 151.793 474.723 150.755C475.834 149.717 476.465 148.301 476.465 146.817V146.253L485.431 146.253L485.431 146.253C486.233 146.252 487.026 146.4 487.765 146.685C488.504 146.971 489.173 147.389 489.735 147.915C490.297 148.44 490.741 149.061 491.043 149.743L491.5 149.54L491.043 149.743C491.345 150.424 491.5 151.153 491.5 151.889Z" fill="white" stroke="#222222"/>
<path d="M426.217 242.474V236.16H485.538V242.474H426.217Z" fill="#F1F1F1" stroke="#222222"/>
<path d="M426.217 255.479V249.164H485.538V255.479H426.217Z" fill="#F1F1F1" stroke="#222222"/>
<path d="M426.217 268.483V262.168H485.538V268.483H426.217Z" fill="#F1F1F1" stroke="#222222"/>
<path d="M484.668 164.95C484.668 167.634 482.328 169.868 479.368 169.868C476.408 169.868 474.068 167.634 474.068 164.95C474.068 162.265 476.408 160.031 479.368 160.031C482.328 160.031 484.668 162.265 484.668 164.95Z" fill="#252222" stroke="#222222"/>
<path d="M426.096 219.988V183.601H485.417V219.988H426.096Z" fill="#F1F1F1" stroke="#222222"/>
<path d="M451.235 192.687C451.367 192.781 451.524 192.895 451.7 193.028C452.28 193.466 453.072 194.113 453.917 194.946C455.614 196.617 457.498 199.007 458.345 201.934C459.192 204.858 458.856 207.805 458.293 210.042C458.013 211.157 457.679 212.087 457.415 212.736C457.338 212.925 457.268 213.091 457.206 213.229C457.074 213.136 456.918 213.022 456.741 212.889C456.162 212.451 455.37 211.804 454.524 210.971C452.827 209.3 450.943 206.909 450.096 203.983C449.249 201.059 449.586 198.112 450.148 195.875C450.428 194.76 450.763 193.83 451.026 193.181C451.103 192.992 451.174 192.826 451.235 192.687Z" fill="#3F3D56" stroke="#222222"/>
<path d="M451.867 203.185C454.199 205.305 455.518 208.007 456.254 210.198C456.621 211.291 456.84 212.25 456.968 212.934C457.001 213.114 457.028 213.275 457.05 213.414C456.89 213.396 456.701 213.374 456.487 213.344C455.749 213.243 454.713 213.063 453.529 212.749C451.153 212.118 448.219 210.954 445.885 208.832C443.554 206.712 442.235 204.01 441.499 201.819C441.132 200.726 440.912 199.767 440.785 199.083C440.751 198.903 440.724 198.742 440.702 198.603C440.862 198.62 441.051 198.643 441.265 198.672C442.004 198.773 443.04 198.953 444.224 199.268C446.599 199.899 449.533 201.063 451.867 203.185Z" fill="#252222" stroke="#222222"/>
<path d="M465.158 203.983C464.311 206.909 462.427 209.3 460.73 210.971C459.884 211.804 459.092 212.451 458.513 212.889C458.336 213.022 458.18 213.136 458.048 213.229C457.986 213.091 457.915 212.925 457.839 212.736C457.575 212.087 457.241 211.157 456.961 210.042C456.398 207.805 456.062 204.858 456.909 201.934C457.756 199.007 459.64 196.617 461.337 194.946C462.182 194.113 462.974 193.466 463.554 193.028C463.73 192.895 463.887 192.781 464.019 192.687C464.08 192.826 464.151 192.992 464.228 193.181C464.491 193.83 464.825 194.76 465.106 195.875C465.668 198.112 466.005 201.059 465.158 203.983Z" fill="#3F3D56" stroke="#222222"/>
<path d="M474.552 198.603C474.53 198.742 474.503 198.903 474.469 199.083C474.342 199.767 474.123 200.726 473.755 201.819C473.02 204.01 471.701 206.712 469.369 208.832C467.035 210.954 464.101 212.118 461.726 212.749C460.542 213.063 459.506 213.243 458.767 213.344C458.553 213.374 458.364 213.396 458.204 213.414C458.226 213.275 458.253 213.114 458.286 212.934C458.414 212.25 458.633 211.291 459 210.198C459.736 208.007 461.055 205.305 463.387 203.185C465.721 201.063 468.655 199.899 471.03 199.268C472.214 198.953 473.25 198.773 473.989 198.672C474.203 198.643 474.392 198.62 474.552 198.603Z" fill="#252222" stroke="#222222"/>
<g opacity="0.5">
<path opacity="0.5" d="M51.5925 36.9839L47.4789 38.8125C46.9633 37.836 46.5043 36.8305 46.1042 35.8009C41.4267 27.4724 30.3832 22.8403 21.2938 25.9276L19.8477 21.641C28.1296 18.828 37.469 21.0616 44.1066 26.5241C43.8326 22.1936 44.4596 17.8532 45.9476 13.7788C47.4356 9.70448 49.7521 5.98536 52.75 2.85779L55.9581 6.03929C48.9977 13.1048 46.7594 24.5959 50.2138 33.8956C50.7488 34.8895 51.2096 35.9217 51.5925 36.9839Z" fill="#888888"/>
</g>
<path d="M79.2141 60.437L77.405 60.9178C77.2658 60.4957 77.1517 60.0654 77.0635 59.6291C75.762 56.0119 71.5981 53.4854 67.6699 54.1664L67.3919 52.3633C69.1675 52.1001 70.9704 52.2764 72.6355 52.8761C74.3007 53.4758 75.7748 54.4797 76.923 55.7958C77.1258 54.0466 77.6964 52.3483 78.5986 50.8089C79.5008 49.2695 80.7149 47.9228 82.1636 46.8543L83.2399 48.3227C81.5796 49.579 80.2934 51.2519 79.5234 53.1568C78.7535 55.0616 78.5296 57.1244 78.8765 59.1174C79.0223 59.5476 79.1352 59.9887 79.2141 60.437Z" fill="#888888"/>
<path d="M236.314 295.015L232.905 291.66C228.832 288.306 229.327 283.519 229.276 283.025C229.221 282.534 229.221 280.553 229.385 279.894C229.551 279.235 229.331 278.517 229.331 278.517C230.543 273.565 234.447 274.938 234.447 274.938C236.04 275.103 236.099 273.565 236.099 273.565C237.197 273.016 236.923 271.862 236.923 271.862L234.992 269.826C234.223 267.794 232.026 267.295 232.026 267.295C232.352 265.263 231.308 263.996 231.308 263.996C231.143 264.6 228.837 267.033 228.667 267.076C225.972 267.735 226.851 268.178 225.148 269.387C223.446 270.595 219.812 272.082 218.219 271.204C216.626 270.32 203.372 269.167 197.656 269.167C195.962 269.167 194.639 269.517 193.617 270.008C192.679 269.289 191.471 267.739 190.579 265.63C189.265 262.525 189.079 259.407 190.089 257.291C190.63 256.15 191.246 255.503 191.927 255.368C192.936 255.17 194.187 256.048 194.546 256.374C195.222 256.995 196.274 256.952 196.899 256.276C197.524 255.6 197.486 254.544 196.81 253.919C196.544 253.674 194.145 251.544 191.301 252.09C189.518 252.432 188.095 253.7 187.072 255.858C185.64 258.866 185.796 262.901 187.503 266.932C188.272 268.749 189.497 270.793 190.997 272.171C190.604 272.72 190.448 273.125 190.448 273.125C189.954 274.279 188.58 276.865 189.075 279.231C189.569 281.597 188.086 282.695 187.812 282.97C187.533 283.249 184.672 284.951 184.672 284.951L182.307 293.312C181.922 294.91 184.068 295.843 184.068 295.843C184.837 295.738 184.892 293.207 184.892 293.207L186.764 288.8L193.803 286.219C193.803 286.219 193.803 289.189 193.693 289.738C193.583 290.288 193.308 291.221 193.308 291.221C193.583 293.144 198.315 297.601 198.315 297.601H201.889V296.448C201.615 295.18 199.798 295.788 199.798 295.788L197.157 291.775C199.962 289.574 201.116 285.889 201.116 285.889C202.434 286.988 208.759 284.951 208.759 284.951L212.557 285.336L211.458 294.187C211.129 296.333 211.623 297.102 211.623 297.102H213.326C214.538 297.102 215.362 297.267 215.362 295.999C215.362 294.736 213.66 294.956 213.66 294.956L217.834 286.709C221.797 284.288 224.323 287.807 224.323 287.807L224.547 289.075C226.085 291.327 234.556 297.102 234.556 297.102H238.735V295.834C238.017 294.517 236.314 295.015 236.314 295.015L236.314 295.015Z" fill="black"/>
</svg>
